<?xml version="1.0" encoding="UTF-8"?>
<svg width="469px" height="559px" viewBox="0 0 469 559" version="1.1" xmlns="http://www.w3.org/2000/svg" xmlns:xlink="http://www.w3.org/1999/xlink">
    <title>Group</title>
    <defs>
        <radialGradient cx="50%" cy="50%" fx="50%" fy="50%" r="111.219137%" gradientTransform="translate(0.5, 0.5), scale(0.569, 1), rotate(90), scale(1, 2.097), translate(-0.5, -0.5)" id="radialGradient-1">
            <stop stop-color="#F78949" offset="0%"></stop>
            <stop stop-color="#000000" offset="100%"></stop>
        </radialGradient>
        <linearGradient x1="50%" y1="0%" x2="50%" y2="147.447126%" id="linearGradient-2">
            <stop stop-color="#35150A" stop-opacity="0.814220935" offset="0%"></stop>
            <stop stop-color="#5E2E11" offset="0.0191215035%"></stop>
            <stop stop-color="#F78949" offset="100%"></stop>
        </linearGradient>
        <path d="M210,87.261588 C291.119099,87.261588 356.879121,70.5695955 356.879121,49.9789793 L374,49.9789793 C374,77.0409321 300.574699,98.9789793 210,98.9789793 C119.425301,98.9789793 46,77.0409321 46,49.9789793 L63.1208791,49.9789793 C63.1208791,70.5695955 128.880901,87.261588 210,87.261588 Z" id="path-3"></path>
        <filter x="-2.4%" y="-16.3%" width="104.9%" height="132.7%" filterUnits="objectBoundingBox" id="filter-4">
            <feGaussianBlur stdDeviation="1.5" in="SourceAlpha" result="shadowBlurInner1"></feGaussianBlur>
            <feOffset dx="0" dy="1" in="shadowBlurInner1" result="shadowOffsetInner1"></feOffset>
            <feComposite in="shadowOffsetInner1" in2="SourceAlpha" operator="arithmetic" k2="-1" k3="1" result="shadowInnerInner1"></feComposite>
            <feColorMatrix values="0 0 0 0 1   0 0 0 0 1   0 0 0 0 1  0 0 0 0.536904502 0" type="matrix" in="shadowInnerInner1"></feColorMatrix>
        </filter>
        <radialGradient cx="50%" cy="50%" fx="50%" fy="50%" r="39.3971263%" gradientTransform="translate(0.5, 0.5), scale(0.209, 1), rotate(90), scale(1, 5.1136), translate(-0.5, -0.5)" id="radialGradient-5">
            <stop stop-color="#000000" offset="0%"></stop>
            <stop stop-color="#F78949" offset="100%"></stop>
        </radialGradient>
        <ellipse id="path-6" cx="210" cy="62.9789793" rx="177" ry="37"></ellipse>
        <filter x="-9.5%" y="-45.3%" width="118.9%" height="190.5%" filterUnits="objectBoundingBox" id="filter-7">
            <feMorphology radius="25" operator="erode" in="SourceAlpha" result="shadowSpreadInner1"></feMorphology>
            <feGaussianBlur stdDeviation="15" in="shadowSpreadInner1" result="shadowBlurInner1"></feGaussianBlur>
            <feOffset dx="0" dy="0" in="shadowBlurInner1" result="shadowOffsetInner1"></feOffset>
            <feComposite in="shadowOffsetInner1" in2="SourceAlpha" operator="arithmetic" k2="-1" k3="1" result="shadowInnerInner1"></feComposite>
            <feColorMatrix values="0 0 0 0 0   0 0 0 0 0   0 0 0 0 0  0 0 0 0.52734375 0" type="matrix" in="shadowInnerInner1"></feColorMatrix>
        </filter>
        <linearGradient x1="100%" y1="50%" x2="0%" y2="50%" id="linearGradient-8">
            <stop stop-color="#0E3B0D" offset="0%"></stop>
            <stop stop-color="#2E932B" offset="100%"></stop>
        </linearGradient>
    </defs>
    <g id="Page-1" stroke="none" stroke-width="1" fill="none" fill-rule="evenodd">
        <g id="Group" transform="translate(4.7032, 4.021)">
            <g id="ghost" transform="translate(0, 23.979)">
                <g id="shadow" transform="translate(80.2968, 195.9824)" fill="#4B4A4A">
                    <path d="M252.224076,10.4409167 L251.280392,10.2804293 C235.960284,7.67501775 221.428778,17.982316 218.823367,33.3024243 C218.697275,34.0438593 218.60096,34.7900515 218.534653,35.5392033 L196.967933,279.207552 C195.497421,295.821908 207.035067,310.779432 223.478281,313.575845 L224.421965,313.736332 C239.742073,316.341744 254.273578,306.034445 256.87899,290.714337 C257.005082,289.972902 257.101397,289.22671 257.167703,288.477558 L278.734424,44.809209 C280.204935,28.194854 268.667289,13.2373291 252.224076,10.4409167 Z" transform="translate(237.8512, 162.0084) rotate(-10) translate(-237.8512, -162.0084)"></path>
                    <path d="M133.609735,23.8212192 L130.695098,23.3810312 C113.367528,20.7641059 97.1993208,32.6894392 94.5823955,50.0170086 C94.5027082,50.5446461 94.4363438,51.0742099 94.3833658,51.6051945 L71.1774146,284.192188 C69.4850933,301.153869 81.3858973,316.464821 98.2406563,319.010339 L101.155293,319.450527 C118.482863,322.067452 134.65107,310.142119 137.267996,292.814549 C137.347683,292.286912 137.414047,291.757348 137.467025,291.226363 L160.672976,58.63937 C162.365298,41.6776893 150.464494,26.3667375 133.609735,23.8212192 Z" transform="translate(115.9252, 171.4158) rotate(-5) translate(-115.9252, -171.4158)"></path>
                    <path d="M65.4867129,15.3386566 L62.5817695,14.9003594 C45.2493312,12.2852451 29.0786447,24.2159935 26.4635303,41.5484319 C26.3843558,42.0731844 26.3183552,42.5998402 26.2655907,43.1279025 L3.02590927,275.708596 C1.33075041,292.673597 13.2345604,307.988458 30.0932308,310.53209 L32.9981742,310.970387 C50.3306125,313.585502 66.501299,301.654753 69.1164134,284.322315 C69.1955879,283.797562 69.2615885,283.270906 69.314353,282.742844 L92.5540344,50.1621509 C94.2491933,33.1971497 82.3453833,17.8822889 65.4867129,15.3386566 Z"></path>
                    <path d="M204.704608,20.7416502 L186.205505,18.4906592 C168.688949,16.3592257 152.752842,28.8096842 150.583061,46.3215308 L121.768377,278.878796 C119.595232,296.41779 132.051715,312.397636 149.590709,314.570781 C149.613887,314.573653 149.637067,314.576499 149.660251,314.57932 L168.159354,316.830311 C185.67591,318.961745 201.612017,306.511286 203.781798,288.99944 L232.596482,56.4421748 C234.769627,38.9031803 222.313144,22.9233341 204.77415,20.7501894 C204.750972,20.7473176 204.727791,20.7444712 204.704608,20.7416502 Z" transform="translate(177.1824, 167.6605) rotate(-10) translate(-177.1824, -167.6605)"></path>
                    <path d="M190.988156,22.7958333 L187.938729,22.3276257 C170.682919,19.6781766 154.546519,31.5189713 151.89707,48.7747807 C151.80979,49.3432367 151.738039,49.9139687 151.681898,50.4863395 L128.403237,287.819359 C126.744269,304.733046 138.59605,319.993261 155.394055,322.572419 L158.443482,323.040627 C175.699291,325.690076 191.835692,313.849281 194.485141,296.593472 C194.572421,296.025016 194.644172,295.454284 194.700312,294.881913 L217.978973,57.5488938 C219.637942,40.6352063 207.786161,25.3749912 190.988156,22.7958333 Z" transform="translate(173.1911, 172.6841) rotate(-10) translate(-173.1911, -172.6841)"></path>
                </g>
                <path d="M232.79642,0 C315.54804,0 382.631482,76.0313126 382.631482,169.82069 C382.631482,181.492217 381.592606,192.888738 379.613942,203.897949 L454.335356,317.65086 C454.39668,317.744215 454.457515,317.83789 454.517858,317.931882 C464.065772,332.803877 459.749751,352.600124 444.877756,362.148038 L429.359954,372.110564 C417.590549,379.666595 402.720239,378.544896 392.293748,370.349048 L403.501236,460.584478 C405.679475,478.122841 393.227633,494.106304 375.689271,496.284542 C375.659949,496.288184 375.630623,496.291785 375.601292,496.295346 L357.102911,498.540803 C346.183482,499.866277 335.879218,495.525712 329.14212,487.82543 C325.141946,499.691591 314.331842,508.594745 301.058734,509.530084 L301.024436,509.532482 L282.941277,510.787256 C274.748767,511.355726 267.062293,508.787999 261.058003,504.10648 C255.310746,509.614869 247.51076,513 238.920134,513 L221.353118,513 C208.858388,513 198.036222,505.838903 192.766963,495.397052 C186.758758,505.33928 175.530765,511.646594 163.146407,510.787256 L145.063248,509.532482 C145.051815,509.531689 145.040382,509.53089 145.02895,509.530084 C130.887864,508.533579 119.542443,498.493097 116.247451,485.460136 C110.384221,488.940169 103.367999,490.580939 96.0775576,489.695976 L77.5791765,487.450518 C77.5498451,487.446958 77.5205187,487.443356 77.4911973,487.439715 C59.9528346,485.261477 47.5009935,469.278013 49.6792317,451.739651 L59.2237717,374.892785 C49.9877898,378.512589 39.2091116,377.796986 30.2337728,372.034797 L14.7156488,362.072124 C14.6216072,362.011749 14.5278826,361.950882 14.4344787,361.889525 C-0.336695826,352.186367 -4.44513425,332.345999 5.2580246,317.574825 L84.738,196.581269 L84.8190384,196.63796 C83.5963691,187.902746 82.9613583,178.945767 82.9613583,169.82069 C82.9613583,76.0313126 150.0448,0 232.79642,0 Z" id="Combined-Shape" stroke="#323232" stroke-width="8" fill="#D8D8D8" stroke-linejoin="round"></path>
                <circle id="Oval" stroke="#979797" fill="#343434" cx="230.296789" cy="206" r="24.5"></circle>
                <path d="M82.7434886,338.199053 C79.4147862,342.975741 71.7048754,355.150902 59.6137562,374.724537" id="Path-7" stroke="#323232" stroke-width="12" stroke-linecap="round" transform="translate(71.1786, 356.4618) rotate(1) translate(-71.1786, -356.4618)"></path>
                <path d="M392.743489,338.199053 C389.414786,342.975741 381.704875,355.150902 369.613756,374.724537" id="Path-7" stroke="#323232" stroke-width="12" stroke-linecap="round" transform="translate(381.1786, 356.4618) scale(-1, 1) rotate(1) translate(-381.1786, -356.4618)"></path>
                <g id="left-eye" transform="translate(114.2968, 90)">
                    <circle id="Oval" fill="#343434" cx="41.5" cy="41.5" r="41.5"></circle>
                    <circle id="Oval" stroke="#979797" fill="#D8D8D8" cx="35.1153846" cy="30.3269231" r="2.69230769"></circle>
                    <circle id="Oval" stroke="#979797" fill="#D8D8D8" cx="27.1346154" cy="17.5576923" r="9.07692308"></circle>
                </g>
                <g id="right-eye" transform="translate(273.2968, 90)">
                    <circle id="Oval" fill="#343434" cx="41.5" cy="41.5" r="41.5"></circle>
                    <circle id="Oval" stroke="#979797" fill="#D8D8D8" cx="33.5192308" cy="30.3269231" r="2.69230769"></circle>
                    <circle id="Oval" stroke="#979797" fill="#D8D8D8" cx="25.5384615" cy="17.5576923" r="9.07692308"></circle>
                </g>
            </g>
            <g id="pumpkin" transform="translate(20.2968, -0)">
                <path d="M50.0488288,49.9789793 C67.3120363,80.8309402 121.949759,96.2569206 213.961998,96.2569206 C305.974236,96.2569206 360.989755,81.1992421 379.008555,51.0838851 C397.72632,68.9695282 408.846252,84.0272067 412.368349,96.2569206 C422.994126,133.152615 421.155364,180.110055 415.143472,198.045867 C406.853402,222.778375 386.809617,237.893964 355.012117,243.392634 C345.574894,261.319072 325.086676,274.008516 293.547464,281.460963 C262.008252,288.913411 235.479764,287.999948 213.961998,278.720576 C175.693517,290.238799 140.941272,292.057453 109.705261,284.176536 C78.469251,276.29562 58.5837735,264.592428 50.0488288,249.066959 C29.5023906,243.092407 16.8854354,235.252569 12.1979631,225.547445 C-3.6613887,192.711633 0.490269672,142.354891 0.490269672,122.35081 C0.490269672,93.4779633 17.0097894,69.3540198 50.0488288,49.9789793 Z M122.433457,111.569313 C118.644901,110.799415 114.949543,113.246522 114.179646,117.035079 L100.661566,183.555621 C100.45763,184.559165 100.476363,185.595233 100.716447,186.590749 C101.622803,190.348996 105.404212,192.66091 109.162459,191.754553 L162.754675,178.829999 C163.677375,178.607476 164.545183,178.199629 165.305342,177.631253 C168.40154,175.316202 169.034784,170.929517 166.719733,167.833319 L126.645597,114.237331 C125.616611,112.861143 124.117382,111.911514 122.433457,111.569313 Z M289.087778,111.94396 L251.191511,167.766903 C250.626285,168.599506 250.247226,169.544192 250.080172,170.536563 C249.438409,174.348917 252.00868,177.959693 255.821034,178.601457 L313.540501,188.317831 C314.604773,188.496989 315.696058,188.427632 316.729086,188.115179 C320.429518,186.995936 322.521985,183.088818 321.402743,179.388385 L301.579543,113.849067 C301.115237,112.313982 300.13789,110.984881 298.810993,110.084097 C295.612414,107.912692 291.259183,108.745381 289.087778,111.94396 Z M210.035088,258.978979 C227.175293,258.978979 241.070175,245.995237 241.070175,229.978979 C241.070175,213.962722 227.175293,200.978979 210.035088,200.978979 C192.894882,200.978979 179,213.962722 179,229.978979 C179,245.995237 192.894882,258.978979 210.035088,258.978979 Z" id="Combined-Shape" stroke="#323232" stroke-width="7" fill="url(#radialGradient-1)" stroke-linejoin="round"></path>
                <path d="M54.703416,236.013314 C44.6979949,206.144064 39.5951013,183.321629 39.3947351,167.546008 C39.1943689,151.770387 43.717527,128.947952 52.9642093,99.0787018" id="Path-4" stroke-opacity="0.566351617" stroke="#653E3E" stroke-width="8" stroke-linecap="round" transform="translate(47.0459, 167.546) rotate(-2) translate(-47.0459, -167.546)"></path>
                <path d="M362.128642,230.78462 C352.123221,200.91537 347.020327,178.092935 346.819961,162.317314 C346.619595,146.541693 351.142753,123.719258 360.389435,93.8500075" id="Path-4" stroke-opacity="0.566351617" stroke="#653E3E" stroke-width="8" stroke-linecap="round" transform="translate(354.4711, 162.3173) scale(-1, 1) rotate(2) translate(-354.4711, -162.3173)"></path>
                <g id="Combined-Shape">
                    <use fill="url(#linearGradient-2)" fill-rule="evenodd" xlink:href="#path-3"></use>
                    <use fill="black" fill-opacity="1" filter="url(#filter-4)" xlink:href="#path-3"></use>
                    <path stroke="#323232" stroke-width="6" d="M66.731295,46.9789793 C64.4968647,52.5247311 68.5932071,57.2554262 75.8112401,61.678669 C83.0605112,66.1210547 93.6962092,70.0877987 106.878867,73.4339779 C133.269866,80.1328558 169.730103,84.261588 210,84.261588 C250.269897,84.261588 286.730134,80.1328558 313.121133,73.4339779 C326.303791,70.0877987 336.939489,66.1210547 344.18876,61.678669 C351.406793,57.2554262 355.503135,52.5247311 353.268705,46.9789793 L376.747833,46.9789793 C378.165219,55.4186722 373.595736,63.7498155 363.335641,71.1506265 C354.811398,77.2993323 342.335072,82.867349 326.824339,87.5016535 C296.926384,96.4345792 255.624911,101.978979 210,101.978979 C164.375089,101.978979 123.073616,96.4345792 93.1756607,87.5016535 C77.6649276,82.867349 65.188602,77.2993323 56.6643594,71.1506265 C46.4042641,63.7498155 41.8347811,55.4186722 43.2521673,46.9789793 Z"></path>
                </g>
                <g id="Oval">
                    <use fill="url(#radialGradient-5)" fill-rule="evenodd" xlink:href="#path-6"></use>
                    <use fill="black" fill-opacity="1" filter="url(#filter-7)" xlink:href="#path-6"></use>
                    <ellipse stroke="#323232" stroke-width="6" cx="210" cy="62.9789793" rx="180" ry="40"></ellipse>
                </g>
                <path d="M242.515537,68.7915639 C272.328996,57.7166489 293.975338,52.1783449 307.454564,52.176652 C314.432958,52.1757761 315.995957,53.8436183 328.597486,55.8041906 C336.423589,57.0217921 345.37439,58.5403216 355.449889,60.3597792" id="Path-2" stroke-opacity="0.327633304" stroke="#3B3333" stroke-width="5" stroke-linecap="round" transform="translate(298.9827, 60.4841) rotate(6) translate(-298.9827, -60.4841)"></path>
                <path d="M228.416944,45.176188 C243.021419,41.03999 254.15224,38.9731158 261.809409,38.9755653 C269.466578,38.9780177 277.885189,40.7322231 287.065243,44.2381816" id="Path-2" stroke-opacity="0.327633304" stroke="#3B3333" stroke-width="5" stroke-linecap="round" transform="translate(257.7411, 42.0759) rotate(-16) translate(-257.7411, -42.0759)"></path>
                <path d="M216.798246,77.8587568 C223.517652,75.26861 228.979899,73.9746571 233.184987,73.9768984 C237.390076,73.9791435 247.38931,76.3816164 263.182691,81.1843171" id="Path-2" stroke-opacity="0.327633304" stroke="#3B3333" stroke-width="5" stroke-linecap="round" transform="translate(239.9905, 77.5806) scale(-1, 1) rotate(-31) translate(-239.9905, -77.5806)"></path>
                <path d="M150.950263,77.8587568 C157.669668,75.26861 163.131915,73.9746571 167.337004,73.9768984 C171.542092,73.9791435 181.541327,76.3816164 197.334707,81.1843171" id="Path-2" stroke-opacity="0.327633304" stroke="#3B3333" stroke-width="5" stroke-linecap="round" transform="translate(174.1425, 77.5806) rotate(-31) translate(-174.1425, -77.5806)"></path>
                <path d="M131.389501,44.851646 C145.993976,40.715448 157.124797,38.6485738 164.781966,38.6510233 C172.439135,38.6534757 181.642695,40.6327617 192.392648,44.5888813" id="Path-2" stroke-opacity="0.327633304" stroke="#3B3333" stroke-width="5" stroke-linecap="round" transform="translate(161.8911, 41.7513) scale(-1, 1) rotate(-16) translate(-161.8911, -41.7513)"></path>
                <path d="M62.7282645,61.2788246 C77.5304012,56.3151999 89.4847713,53.4312669 98.5913748,52.6270257 C105.892827,51.9822047 111.891166,51.6600405 116.586393,51.6605323 C130.065673,51.6619464 150.308372,56.4341636 177.314489,65.977184" id="Path-2" stroke-opacity="0.327633304" stroke="#3B3333" stroke-width="5" stroke-linecap="round" transform="translate(120.0214, 58.8189) rotate(-5) translate(-120.0214, -58.8189)"></path>
                <path d="M217.994751,1.33511997 L226.808734,1.33245806 L226.808734,1.33245806 L226.786109,56.1727869 C226.78444,61.6932742 222.309617,66.1680959 216.789129,66.1697632 L207.975149,66.1784703 L207.975149,66.1784703 L207.997774,11.3381415 C207.999443,5.81765414 212.474266,1.34283242 217.994753,1.34116518 Z" id="Rectangle" stroke="#323232" stroke-width="6" fill="url(#linearGradient-8)" transform="translate(217.3919, 33.7555) rotate(15) translate(-217.3919, -33.7555)"></path>
            </g>
        </g>
    </g>
</svg>