<?xml version="1.0" encoding="UTF-8"?>
<svg width="468px" height="535px" viewBox="0 0 468 535" version="1.1" xmlns="http://www.w3.org/2000/svg" xmlns:xlink="http://www.w3.org/1999/xlink">
    <title>ghost-normal</title>
    <g id="Page-1" stroke="none" stroke-width="1" fill="none" fill-rule="evenodd">
        <g id="ghost" transform="translate(4, 4)">
            <g id="shadow" transform="translate(80.2968, 195.9824)" fill="#4B4A4A">
                <path d="M252.224076,10.4409167 L251.280392,10.2804293 C235.960284,7.67501775 221.428778,17.982316 218.823367,33.3024243 C218.697275,34.0438593 218.60096,34.7900515 218.534653,35.5392033 L196.967933,279.207552 C195.497421,295.821908 207.035067,310.779432 223.478281,313.575845 L224.421965,313.736332 C239.742073,316.341744 254.273578,306.034445 256.87899,290.714337 C257.005082,289.972902 257.101397,289.22671 257.167703,288.477558 L278.734424,44.809209 C280.204935,28.194854 268.667289,13.2373291 252.224076,10.4409167 Z" transform="translate(237.8512, 162.0084) rotate(-10) translate(-237.8512, -162.0084)"></path>
                <path d="M133.609735,23.8212192 L130.695098,23.3810312 C113.367528,20.7641059 97.1993208,32.6894392 94.5823955,50.0170086 C94.5027082,50.5446461 94.4363438,51.0742099 94.3833658,51.6051945 L71.1774146,284.192188 C69.4850933,301.153869 81.3858973,316.464821 98.2406563,319.010339 L101.155293,319.450527 C118.482863,322.067452 134.65107,310.142119 137.267996,292.814549 C137.347683,292.286912 137.414047,291.757348 137.467025,291.226363 L160.672976,58.63937 C162.365298,41.6776893 150.464494,26.3667375 133.609735,23.8212192 Z" transform="translate(115.9252, 171.4158) rotate(-5) translate(-115.9252, -171.4158)"></path>
                <path d="M65.4867129,15.3386566 L62.5817695,14.9003594 C45.2493312,12.2852451 29.0786447,24.2159935 26.4635303,41.5484319 C26.3843558,42.0731844 26.3183552,42.5998402 26.2655907,43.1279025 L3.02590927,275.708596 C1.33075041,292.673597 13.2345604,307.988458 30.0932308,310.53209 L32.9981742,310.970387 C50.3306125,313.585502 66.501299,301.654753 69.1164134,284.322315 C69.1955879,283.797562 69.2615885,283.270906 69.314353,282.742844 L92.5540344,50.1621509 C94.2491933,33.1971497 82.3453833,17.8822889 65.4867129,15.3386566 Z"></path>
                <path d="M204.704608,20.7416502 L186.205505,18.4906592 C168.688949,16.3592257 152.752842,28.8096842 150.583061,46.3215308 L121.768377,278.878796 C119.595232,296.41779 132.051715,312.397636 149.590709,314.570781 C149.613887,314.573653 149.637067,314.576499 149.660251,314.57932 L168.159354,316.830311 C185.67591,318.961745 201.612017,306.511286 203.781798,288.99944 L232.596482,56.4421748 C234.769627,38.9031803 222.313144,22.9233341 204.77415,20.7501894 C204.750972,20.7473176 204.727791,20.7444712 204.704608,20.7416502 Z" transform="translate(177.1824, 167.6605) rotate(-10) translate(-177.1824, -167.6605)"></path>
                <path d="M190.988156,22.7958333 L187.938729,22.3276257 C170.682919,19.6781766 154.546519,31.5189713 151.89707,48.7747807 C151.80979,49.3432367 151.738039,49.9139687 151.681898,50.4863395 L128.403237,287.819359 C126.744269,304.733046 138.59605,319.993261 155.394055,322.572419 L158.443482,323.040627 C175.699291,325.690076 191.835692,313.849281 194.485141,296.593472 C194.572421,296.025016 194.644172,295.454284 194.700312,294.881913 L217.978973,57.5488938 C219.637942,40.6352063 207.786161,25.3749912 190.988156,22.7958333 Z" transform="translate(173.1911, 172.6841) rotate(-10) translate(-173.1911, -172.6841)"></path>
            </g>
            <path d="M232.79642,0 C315.54804,0 382.631482,76.0313126 382.631482,169.82069 C382.631482,181.492217 381.592606,192.888738 379.613942,203.897949 L454.335356,317.65086 C454.39668,317.744215 454.457515,317.83789 454.517858,317.931882 C464.065772,332.803877 459.749751,352.600124 444.877756,362.148038 L429.359954,372.110564 C417.590549,379.666595 402.720239,378.544896 392.293748,370.349048 L403.501236,460.584478 C405.679475,478.122841 393.227633,494.106304 375.689271,496.284542 C375.659949,496.288184 375.630623,496.291785 375.601292,496.295346 L357.102911,498.540803 C346.183482,499.866277 335.879218,495.525712 329.14212,487.82543 C325.141946,499.691591 314.331842,508.594745 301.058734,509.530084 L301.024436,509.532482 L282.941277,510.787256 C274.748767,511.355726 267.062293,508.787999 261.058003,504.10648 C255.310746,509.614869 247.51076,513 238.920134,513 L221.353118,513 C208.858388,513 198.036222,505.838903 192.766963,495.397052 C186.758758,505.33928 175.530765,511.646594 163.146407,510.787256 L145.063248,509.532482 C145.051815,509.531689 145.040382,509.53089 145.02895,509.530084 C130.887864,508.533579 119.542443,498.493097 116.247451,485.460136 C110.384221,488.940169 103.367999,490.580939 96.0775576,489.695976 L77.5791765,487.450518 C77.5498451,487.446958 77.5205187,487.443356 77.4911973,487.439715 C59.9528346,485.261477 47.5009935,469.278013 49.6792317,451.739651 L59.2237717,374.892785 C49.9877898,378.512589 39.2091116,377.796986 30.2337728,372.034797 L14.7156488,362.072124 C14.6216072,362.011749 14.5278826,361.950882 14.4344787,361.889525 C-0.336695826,352.186367 -4.44513425,332.345999 5.2580246,317.574825 L84.738,196.581269 L84.8190384,196.63796 C83.5963691,187.902746 82.9613583,178.945767 82.9613583,169.82069 C82.9613583,76.0313126 150.0448,0 232.79642,0 Z" id="Combined-Shape" stroke="#323232" stroke-width="8" fill="#D8D8D8" stroke-linejoin="round"></path>
            <path d="M261.686197,193.5 C262.443438,202.077069 259.259621,209.928041 253.742225,215.445436 C248.765704,220.421958 241.890704,223.5 234.296789,223.5 C226.702874,223.5 219.827874,220.421958 214.851352,215.445436 C209.333957,209.928041 206.150139,202.077069 206.907381,193.5 Z" id="Combined-Shape" stroke-opacity="0.844023164" stroke="#323232" stroke-width="5" fill="#343434"></path>
            <path d="M82.7434886,338.199053 C79.4147862,342.975741 71.7048754,355.150902 59.6137562,374.724537" id="Path-7" stroke="#323232" stroke-width="12" stroke-linecap="round" transform="translate(71.1786, 356.4618) rotate(1) translate(-71.1786, -356.4618)"></path>
            <path d="M392.743489,338.199053 C389.414786,342.975741 381.704875,355.150902 369.613756,374.724537" id="Path-7" stroke="#323232" stroke-width="12" stroke-linecap="round" transform="translate(381.1786, 356.4618) scale(-1, 1) rotate(1) translate(-381.1786, -356.4618)"></path>
            <g id="left-eye" transform="translate(114.2968, 90)">
                <circle id="Oval" fill="#343434" cx="41.5" cy="41.5" r="41.5"></circle>
                <circle id="Oval" stroke="#979797" fill="#D8D8D8" cx="35.1153846" cy="30.3269231" r="2.69230769"></circle>
                <circle id="Oval" stroke="#979797" fill="#D8D8D8" cx="27.1346154" cy="17.5576923" r="9.07692308"></circle>
            </g>
            <g id="right-eye" transform="translate(273.2968, 90)">
                <circle id="Oval" fill="#343434" cx="41.5" cy="41.5" r="41.5"></circle>
                <circle id="Oval" stroke="#979797" fill="#D8D8D8" cx="33.5192308" cy="30.3269231" r="2.69230769"></circle>
                <circle id="Oval" stroke="#979797" fill="#D8D8D8" cx="25.5384615" cy="17.5576923" r="9.07692308"></circle>
            </g>
        </g>
    </g>
</svg>